<?xml version="1.0" encoding="UTF-8" standalone="no"?>
<svg
   xmlns:latexdraw="http://latexdraw.sourceforge.net/namespaces/latexdraw"
   xmlns:dc="http://purl.org/dc/elements/1.1/"
   xmlns:cc="http://creativecommons.org/ns#"
   xmlns:rdf="http://www.w3.org/1999/02/22-rdf-syntax-ns#"
   xmlns:svg="http://www.w3.org/2000/svg"
   xmlns="http://www.w3.org/2000/svg"
   xmlns:sodipodi="http://sodipodi.sourceforge.net/DTD/sodipodi-0.dtd"
   xmlns:inkscape="http://www.inkscape.org/namespaces/inkscape"
   version="1.1"
   id="svg4196"
   inkscape:version="0.91 r13725"
   sodipodi:docname="laptop_q.svg">
  <sodipodi:namedview
     pagecolor="#ffffff"
     bordercolor="#666666"
     borderopacity="1"
     objecttolerance="10"
     gridtolerance="10"
     guidetolerance="10"
     inkscape:pageopacity="0"
     inkscape:pageshadow="2"
     inkscape:window-width="1600"
     inkscape:window-height="876"
     id="namedview4216"
     showgrid="false"
     inkscape:zoom="7.4099997"
     inkscape:cx="23.452778"
     inkscape:cy="60.537989"
     inkscape:window-x="0"
     inkscape:window-y="24"
     inkscape:window-maximized="1"
     inkscape:current-layer="g4144" />
  <defs
     id="defs4212">
    <clipPath
       id="clipPath4401"
       clipPathUnits="userSpaceOnUse">
      <path
         inkscape:connector-curvature="0"
         id="path4403"
         d="M 0,566 800,566 800,0 0,0 0,566 Z" />
    </clipPath>
    <clipPath
       id="clipPath4178"
       clipPathUnits="userSpaceOnUse">
      <path
         inkscape:connector-curvature="0"
         id="path4180"
         d="M 0,566 800,566 800,0 0,0 0,566 Z" />
    </clipPath>
  </defs>
  <metadata
     id="metadata4214">
    <latexdraw:metadata>
      <latexdraw:latexIncludes />
      <latexdraw:displayXScale>true</latexdraw:displayXScale>
      <latexdraw:displayYScale>true</latexdraw:displayYScale>
      <latexdraw:unit>CM</latexdraw:unit>
      <latexdraw:zoom>1.0</latexdraw:zoom>
      <latexdraw:magneticGridStyle>CUSTOMISED</latexdraw:magneticGridStyle>
      <latexdraw:gridGap>20</latexdraw:gridGap>
      <latexdraw:magneticGrid>false</latexdraw:magneticGrid>
      <latexdraw:version>3.3.5</latexdraw:version>
      <latexdraw:size>
        <latexdraw:width>1600</latexdraw:width>
        <latexdraw:height>876</latexdraw:height>
      </latexdraw:size>
      <latexdraw:position>
        <latexdraw:x>0.0</latexdraw:x>
        <latexdraw:y>24.0</latexdraw:y>
      </latexdraw:position>
    </latexdraw:metadata>
    <rdf:RDF>
      <cc:Work
         rdf:about="">
        <dc:format>image/svg+xml</dc:format>
        <dc:type
           rdf:resource="http://purl.org/dc/dcmitype/StillImage" />
        <dc:title />
      </cc:Work>
    </rdf:RDF>
  </metadata>
  <g
     id="g4144"
     transform="matrix(1.5278059,0,0,1.6264089,-43.991393,-53.331457)">
    <g
       transform="matrix(0.12934254,0,0,0.11271174,15.732388,8.3514969)"
       id="g4198"
       style="fill:#000000">
      <g
         id="id626355784"
         latexdraw:type="rectangle"
         style="fill:#000000">
        <rect
           style="fill:#000000;stroke:#000000;stroke-width:2"
           id="rect4201"
           latexdraw:borderPos="outer"
           height="139"
           width="218"
           y="262"
           x="281" />
      </g>
      <g
         id="id485247276"
         latexdraw:type="rectangle"
         style="fill:#000000;stroke:#ffffff;stroke-opacity:1"
         transform="matrix(1.0175861,0,0,1.268804,-6.2985731,-109.13443)">
        <rect
           style="fill:#000000;stroke:#ffffff;stroke-width:2;stroke-opacity:1"
           id="rect4204"
           latexdraw:borderPos="outer"
           height="10"
           width="218"
           y="401"
           x="281" />
      </g>
      <g
         id="id1898909400"
         latexdraw:type="joinedLines"
         style="fill:#000000"
         transform="matrix(1.0004134,0,0,0.98217143,-0.2156933,6.602531)">
        <polyline
           style="fill:#000000;stroke:#000000;stroke-width:2"
           id="polyline4207"
           latexdraw:rotationAngle="0.0"
           points="500.0,401.0 543.0,372.0 543.0,384.0 501.0,411.0 " />
      </g>
      <g
         id="id96107974"
         latexdraw:type="joinedLines"
         style="fill:#000000">
        <polyline
           style="fill:#000000;stroke:#000000;stroke-width:2"
           id="polyline4210"
           latexdraw:rotationAngle="0.0"
           points="544.0,372.0 501.0,371.0 501.0,371.0 " />
      </g>
    </g>
  </g>
  <g
     transform="matrix(0.03082194,0,0,-0.0305047,38.228974,24.291604)"
     inkscape:label="black-atom-icon-free-vector"
     id="g4172"
     style="fill:#f9f9f9">
    <g
       id="g4174"
       transform="matrix(0.8759343,0,0,0.81198162,242.32609,-119.32677)"
       style="fill:#f9f9f9">
      <g
         clip-path="url(#clipPath4178)"
         id="g4176"
         style="fill:#f9f9f9">
        <g
           transform="translate(358.2578,272.0645)"
           id="g4182"
           style="fill:#f9f9f9">
          <path
             inkscape:connector-curvature="0"
             id="path4184"
             style="fill:#f9f9f9;fill-opacity:1;fill-rule:nonzero;stroke:none"
             d="M 0,0 C -6.301,23.515 7.661,47.698 31.181,53.999 54.698,60.3 78.88,46.341 85.183,22.82 91.484,-0.7 77.521,-24.876 54,-31.181 30.484,-37.479 6.305,-23.521 0,0 m 237.515,55.041 c 0.051,-1.435 -0.423,-2.923 -0.573,-4.391 -0.426,-1.469 -0.695,-2.975 -1.206,-4.469 -1.982,-5.985 -5.345,-11.896 -9.258,-17.578 -7.995,-11.343 -18.552,-21.402 -29.664,-30.54 -7.411,-5.959 -15.245,-11.36 -23.259,-16.409 -1.393,2.146 -2.78,4.295 -4.211,6.397 -7.917,12.215 -16.484,23.73 -25.06,34.916 -3.588,4.593 -7.222,9.08 -10.888,13.498 0.929,5.24 1.816,10.51 2.615,15.842 2.152,13.923 3.728,28.192 4.516,42.714 0.203,2.56 0.336,5.139 0.475,7.714 9.512,-0.337 19.044,-1.067 28.487,-2.553 14.198,-2.366 28.382,-5.809 40.97,-11.665 6.23,-2.983 12.099,-6.423 16.802,-10.631 1.185,-1.042 2.171,-2.21 3.275,-3.272 0.861,-1.197 2.015,-2.249 2.69,-3.521 l 1.17,-1.819 0.903,-1.915 c 0.341,-0.621 0.607,-1.271 0.776,-1.947 l 0.324,-0.994 0.168,-0.492 0.084,-0.247 c -0.017,0.089 0.046,-0.143 0.053,-0.161 l 0.482,-2.311 0.279,-1.36 0.022,-0.885 c 0.023,-0.587 0.076,-1.159 0.136,-1.759 l -0.108,-2.162 z M 181.463,-50.603 c -12.204,-6.888 -18.731,-21.35 -14.936,-35.514 3.444,-12.84 14.356,-21.66 26.805,-23.094 -0.18,-2.068 -0.429,-4.11 -0.839,-6.07 -0.306,-1.548 -0.827,-2.986 -1.194,-4.474 -0.608,-1.344 -0.941,-2.869 -1.706,-4.087 l -0.988,-1.926 -1.209,-1.736 c -0.367,-0.607 -0.796,-1.162 -1.296,-1.646 l -0.698,-0.778 -0.345,-0.392 -0.171,-0.196 c 0.067,0.054 -0.105,-0.112 -0.128,-0.143 l -1.742,-1.556 -1.043,-0.924 -0.751,-0.461 c -0.497,-0.313 -0.969,-0.646 -1.457,-0.997 l -1.926,-0.985 c -1.22,-0.765 -2.742,-1.097 -4.09,-1.703 -1.485,-0.364 -2.923,-0.884 -4.471,-1.186 -6.176,-1.279 -12.977,-1.319 -19.857,-0.774 -13.816,1.254 -27.809,5.369 -41.277,10.419 -8.757,3.397 -17.246,7.422 -25.528,11.777 1.135,2.284 2.259,4.598 3.377,6.95 2.454,4.829 4.81,9.84 7.157,14.98 4.671,10.29 9.083,21.191 13.215,32.621 0.941,2.508 1.866,5.046 2.785,7.601 5.179,1.871 10.368,3.806 15.568,5.85 13.132,5.102 26.276,10.868 39.251,17.448 2.316,1.103 4.614,2.281 6.917,3.447 3.871,-7.296 7.446,-14.772 10.577,-22.451 M 78.365,-114.817 c -3,1.637 -5.975,3.315 -8.916,5.026 -12.215,7.431 -23.947,15.395 -34.941,23.962 -3.267,2.516 -6.47,5.078 -9.636,7.653 7.391,1.42 14.877,2.994 22.475,4.798 18.648,4.384 37.81,9.992 57.174,16.811 -4.443,-13.068 -9.309,-25.472 -14.89,-36.882 -3.508,-7.55 -7.287,-14.681 -11.266,-21.368 m -21.478,-29.826 c -11.927,-13.53 -23.818,-23.71 -34.258,-29.807 -10.418,-6.238 -18.888,-8.233 -24.078,-8.297 -0.655,-0.018 -1.272,-0.036 -1.851,-0.049 -0.562,0.064 -1.084,0.122 -1.571,0.176 -0.483,0.046 -0.93,0.084 -1.337,0.121 -0.391,0.096 -0.745,0.181 -1.061,0.258 -0.899,0.202 -1.478,0.336 -1.743,0.391 -0.413,0.144 -1.147,0.391 -2.203,0.744 -0.416,0.144 -0.884,0.304 -1.404,0.485 -0.284,0.158 -0.598,0.333 -0.939,0.525 -0.343,0.181 -0.72,0.363 -1.135,0.543 -0.478,0.314 -0.987,0.647 -1.528,0.999 -4.348,2.751 -10.383,8.834 -15.885,19.457 -5.552,10.535 -10.251,25.216 -13.463,42.756 -1.581,8.917 -2.647,18.596 -3.104,28.86 2.551,0.157 5.13,0.344 7.734,0.547 5.409,0.29 10.924,0.76 16.55,1.296 11.244,1.097 22.897,2.732 34.859,4.867 2.639,0.44 5.302,0.906 7.974,1.389 4.211,-3.551 8.482,-7.078 12.854,-10.559 10.981,-8.826 22.55,-17.325 34.733,-25.267 2.814,-1.94 5.68,-3.826 8.577,-5.682 -5.648,-8.832 -11.616,-16.794 -17.721,-23.753 m -105.082,88.571 c 0.749,12.123 2.346,24.76 4.583,37.757 4.849,-5.604 9.878,-11.206 15.149,-16.79 13.12,-13.956 27.559,-27.746 43.148,-41.105 -13.536,-2.686 -26.715,-4.671 -39.387,-5.547 -8.287,-0.737 -16.35,-1.028 -24.121,-0.927 -0.22,8.53 -0.047,17.413 0.628,26.612 m -7.762,-26.396 c -8.672,0.392 -16.918,1.293 -24.657,2.614 1.098,14.775 -8.39,28.721 -23.226,32.695 -12.724,3.412 -25.711,-1.506 -33.212,-11.391 -5.315,4.059 -8.715,7.976 -10.525,11.02 -0.343,0.56 -0.666,1.088 -0.965,1.582 -0.228,0.516 -0.438,1 -0.633,1.449 -0.205,0.44 -0.392,0.848 -0.562,1.217 -0.116,0.384 -0.219,0.737 -0.31,1.048 -0.272,0.876 -0.444,1.434 -0.526,1.697 -0.085,0.418 -0.236,1.158 -0.463,2.288 -0.084,0.436 -0.178,0.92 -0.282,1.455 -0.005,0.33 -0.009,0.689 -0.015,1.079 -0.017,0.386 -0.048,0.804 -0.099,1.256 0.032,0.567 0.067,1.175 0.104,1.821 0.206,5.143 2.459,13.41 8.908,23.485 6.347,10.077 16.71,21.484 30.296,33.038 6.93,5.828 14.776,11.589 23.438,17.119 1.413,-2.133 2.865,-4.272 4.344,-6.425 2.955,-4.541 6.12,-9.085 9.396,-13.686 6.575,-9.191 13.811,-18.464 21.643,-27.755 1.565,-1.905 3.17,-3.811 4.778,-5.72 -2.501,-14.873 -4.308,-29.271 -5.638,-43.008 -0.804,-9.266 -1.406,-18.225 -1.794,-26.878 M -99.705,77.057 c -5.753,17.097 -8.624,32.481 -8.688,44.571 -0.189,12.143 2.316,20.474 4.853,25.002 0.313,0.577 0.609,1.119 0.886,1.627 0.337,0.455 0.65,0.879 0.938,1.271 0.279,0.398 0.538,0.763 0.774,1.096 0.278,0.294 0.529,0.556 0.754,0.794 0.629,0.68 1.032,1.115 1.214,1.311 0.323,0.286 0.886,0.783 1.743,1.537 0.333,0.289 0.708,0.614 1.12,0.972 0.28,0.167 0.59,0.351 0.926,0.552 0.327,0.209 0.672,0.443 1.038,0.712 0.509,0.258 1.052,0.532 1.628,0.823 4.559,2.392 12.843,4.576 24.793,4.029 11.901,-0.461 26.962,-3.73 43.76,-9.719 8.61,-3.124 17.628,-7.098 26.858,-11.906 -1.166,-2.285 -2.34,-4.569 -3.447,-6.868 -6.619,-12.959 -12.309,-26.137 -17.706,-39.16 -2.104,-5.204 -4.1,-10.398 -6.029,-15.585 -13.93,-5.21 -27.123,-10.771 -39.519,-16.413 -8.427,-3.938 -16.488,-7.896 -24.175,-11.888 -4.83,9.312 -8.745,18.47 -11.721,27.242 M 9.087,136.399 c 6.756,-3.761 13.597,-7.965 20.453,-12.623 9.952,-6.596 19.925,-14.147 29.885,-22.411 C 53.74,100.319 48.104,99.209 42.553,97.988 35.908,96.513 29.354,94.969 22.996,93.33 16.55,91.624 10.293,89.781 4.118,87.852 c -7.23,-2.241 -14.267,-4.623 -21.15,-7.086 1.336,3.587 2.715,7.173 4.166,10.755 5.126,12.951 11.275,25.731 18.075,38.307 1.262,2.201 2.572,4.386 3.878,6.571 m 17.773,26.285 c 12.067,-7.126 27.855,-5.541 38.22,4.826 9.399,9.399 11.584,23.26 6.604,34.758 1.88,0.879 3.772,1.685 5.672,2.311 1.495,0.506 3,0.775 4.471,1.2 1.472,0.149 2.958,0.62 4.396,0.566 l 2.163,0.108 2.106,-0.18 c 0.709,-0.014 1.404,-0.107 2.076,-0.297 l 1.02,-0.217 0.512,-0.101 0.255,-0.051 c -0.084,0.031 0.139,-0.03 0.168,-0.034 l 2.24,-0.739 1.318,-0.438 0.774,-0.423 c 0.523,-0.274 1.045,-0.513 1.596,-0.763 l 1.817,-1.174 c 1.269,-0.672 2.318,-1.828 3.515,-2.692 1.062,-1.105 2.231,-2.088 3.268,-3.277 4.194,-4.71 7.628,-10.579 10.596,-16.808 5.822,-12.594 9.255,-26.768 11.617,-40.959 1.454,-9.399 2.217,-18.883 2.578,-28.348 -2.553,-0.133 -5.109,-0.259 -7.645,-0.45 -14.534,-0.749 -28.79,-2.409 -42.768,-4.244 -5.558,-0.779 -11.057,-1.652 -16.514,-2.573 -11.475,9.457 -22.888,18.102 -33.973,26.018 -6.871,4.803 -13.611,9.351 -20.221,13.618 4.377,6.994 9.06,13.82 14.139,20.363 m 91.538,-189.548 c 5.332,17.685 9.903,36.364 13.612,55.772 2.592,-3.125 5.162,-6.289 7.684,-9.524 8.657,-10.916 16.647,-22.632 24.139,-34.805 1.271,-2.186 2.5,-4.402 3.736,-6.614 -2.191,-1.314 -4.378,-2.632 -6.588,-3.895 -12.538,-6.863 -25.305,-13.042 -38.218,-18.278 -3.813,-1.573 -7.628,-3.064 -11.444,-4.52 2.465,7.112 4.846,14.384 7.079,21.864 M -42.846,16.312 C -44.69,8.18 -46.273,0.158 -47.676,-7.744 -56.601,2.475 -64.76,12.733 -71.742,23.105 c -4.781,6.807 -9.064,13.646 -12.863,20.428 7.274,4.452 15.056,8.744 23.359,12.759 10.691,5.322 22.212,10.18 34.353,14.679 -1.939,-5.448 -3.795,-10.886 -5.514,-16.304 -2.045,-6.492 -3.985,-12.94 -5.743,-19.266 -1.746,-6.434 -3.279,-12.777 -4.696,-19.089 m 6.091,-1.424 c 4.695,19.02 10.124,38.836 17.131,58.712 8.269,2.907 16.796,5.657 25.552,8.264 18.822,5.444 38.695,10.653 59.411,14.523 6.649,-5.71 13.298,-11.72 19.932,-18 14.231,-13.68 28.785,-28.403 42.586,-44.55 -1.264,-7.176 -2.666,-14.26 -4.193,-21.23 -1.463,-6.551 -2.992,-13.013 -4.639,-19.365 -1.614,-6.321 -3.199,-12.707 -4.95,-18.815 -2.397,-8.513 -4.894,-16.836 -7.529,-24.937 -7.482,-2.761 -14.955,-5.332 -22.383,-7.693 -6.405,-2.007 -12.768,-3.914 -19.095,-5.665 -6.277,-1.762 -12.601,-3.581 -18.766,-5.12 -8.573,-2.181 -17.026,-4.181 -25.356,-5.949 -6.133,5.101 -12.097,10.287 -17.856,15.54 -4.943,4.544 -9.775,9.096 -14.455,13.701 -4.664,4.555 -9.403,9.124 -13.817,13.694 -6.077,6.232 -11.942,12.455 -17.557,18.689 1.696,9.234 3.703,18.645 5.984,28.201 m 170.88,80.383 c -0.325,-14.292 -1.358,-28.438 -3.277,-42.24 -0.517,-3.862 -1.09,-7.693 -1.701,-11.505 -3.826,4.502 -7.686,8.923 -11.601,13.207 -4.598,5.016 -9.212,9.919 -13.811,14.606 -4.702,4.729 -9.424,9.228 -14.183,13.61 -5.556,5.14 -11.137,10.045 -16.714,14.775 3.776,0.635 7.571,1.236 11.399,1.769 13.783,2.038 27.925,3.1 42.214,3.501 2.526,0.008 5.062,-0.034 7.595,-0.074 0.042,-2.552 0.09,-5.106 0.079,-7.649 m 119.52,-34.173 -0.166,1.914 -0.26,1.39 -0.523,2.754 c -0.286,1.176 -0.158,0.564 -0.257,0.936 l -0.142,0.417 -0.281,0.833 -0.577,1.663 c -0.353,1.122 -0.81,2.194 -1.361,3.223 l -1.573,3.113 -1.893,2.871 c -1.2,1.985 -2.801,3.536 -4.216,5.292 -1.554,1.551 -3.143,3.113 -4.83,4.454 -6.733,5.432 -14.161,9.157 -21.687,11.803 -7.522,2.683 -15.121,4.498 -22.696,5.826 -7.591,1.219 -15.156,1.937 -22.662,2.369 -7.513,0.299 -14.952,0.565 -22.345,0.488 -2.297,-0.027 -4.576,-0.117 -6.861,-0.186 0.29,9.592 0.215,19.279 -0.253,29.074 -0.425,7.505 -1.131,15.066 -2.342,22.66 -1.317,7.574 -3.132,15.171 -5.81,22.693 -2.646,7.526 -6.357,14.954 -11.788,21.688 -1.339,1.684 -2.898,3.275 -4.445,4.832 -1.757,1.413 -3.302,3.016 -5.285,4.219 l -2.872,1.892 c -1.119,0.593 -2.279,1.163 -3.432,1.718 l -1.742,0.813 -1.333,0.47 -2.646,0.925 c -1.162,0.341 -0.569,0.144 -0.94,0.243 l -0.431,0.087 -0.864,0.173 -1.728,0.33 c -1.147,0.258 -2.304,0.397 -3.467,0.435 l -3.487,0.192 -3.434,-0.201 c -2.319,-0.047 -4.462,-0.659 -6.691,-1.006 -2.12,-0.571 -4.267,-1.165 -6.269,-1.954 -3.55,-1.373 -6.872,-3.037 -10.004,-4.901 -12.342,9.556 -30.145,8.698 -41.472,-2.629 -11.901,-11.902 -12.24,-30.946 -1.088,-43.297 -3.413,-5.428 -6.77,-10.84 -9.874,-16.348 -1.118,-1.994 -2.177,-4.004 -3.254,-6.009 -8.937,5.583 -17.627,10.619 -26.052,14.994 -16.546,8.615 -32.342,14.166 -46.452,16.314 -7.035,1.188 -13.699,1.045 -19.578,0.293 -5.888,-0.713 -10.982,-2.399 -14.9,-4.378 -0.986,-0.493 -1.902,-0.932 -2.778,-1.409 -0.915,-0.598 -1.767,-1.157 -2.557,-1.674 -0.776,-0.539 -1.491,-1.037 -2.141,-1.49 -0.442,-0.371 -0.838,-0.706 -1.191,-1.006 -1.375,-1.176 -2.086,-1.784 -2.086,-1.784 l -0.435,-0.407 c 0,0 -0.789,-0.904 -2.321,-2.656 -0.373,-0.445 -0.792,-0.943 -1.254,-1.495 -0.4,-0.594 -0.838,-1.245 -1.312,-1.951 -0.465,-0.713 -0.968,-1.481 -1.505,-2.306 -0.467,-0.853 -0.917,-1.782 -1.41,-2.765 -4.096,-7.823 -6.353,-20.405 -4.232,-34.508 2.077,-14.144 7.547,-30.001 16.131,-46.595 4.356,-8.265 9.085,-16.919 14.62,-25.68 0.109,-0.176 0.23,-0.354 0.34,-0.531 -9.17,-4.886 -17.749,-9.831 -25.65,-14.875 -15.734,-10.023 -28.44,-20.927 -37.356,-32.076 -4.548,-5.496 -7.753,-11.336 -10.042,-16.804 -2.329,-5.456 -3.413,-10.71 -3.66,-15.092 -0.064,-1.102 -0.144,-2.114 -0.168,-3.11 0.061,-1.094 0.119,-2.109 0.172,-3.054 0.078,-0.94 0.152,-1.81 0.219,-2.597 0.1,-0.568 0.192,-1.079 0.275,-1.534 0.33,-1.783 0.502,-2.7 0.502,-2.7 l 0.138,-0.579 c 0,0 0.386,-1.138 1.138,-3.341 0.198,-0.545 0.42,-1.156 0.666,-1.832 0.315,-0.642 0.66,-1.345 1.037,-2.111 0.383,-0.76 0.796,-1.579 1.243,-2.457 0.505,-0.828 1.085,-1.683 1.689,-2.604 3.651,-5.761 10.335,-11.978 19.294,-16.917 -1.56,-15.101 7.986,-29.536 23.124,-33.59 16.056,-4.306 32.512,4.643 37.851,20.123 8.12,-0.268 16.6,-0.395 25.467,-0.045 0.21,0.009 0.422,0.023 0.63,0.032 -0.353,-10.389 -0.358,-20.287 0.059,-29.652 0.81,-18.638 3.903,-35.093 9.097,-48.389 2.488,-6.684 5.944,-12.384 9.535,-17.098 3.559,-4.748 7.567,-8.312 11.243,-10.715 0.921,-0.611 1.755,-1.18 2.606,-1.702 0.978,-0.493 1.888,-0.95 2.729,-1.376 0.857,-0.404 1.644,-0.775 2.361,-1.114 0.544,-0.194 1.031,-0.369 1.467,-0.527 1.708,-0.603 2.587,-0.912 2.587,-0.912 l 0.389,-0.139 3.643,-0.721 c 0.57,-0.098 1.215,-0.209 1.923,-0.336 0.711,-0.047 1.496,-0.101 2.345,-0.161 0.848,-0.045 1.768,-0.095 2.748,-0.149 0.971,0.023 2.004,0.096 3.099,0.164 8.825,0.364 20.852,4.696 32.005,13.588 11.207,8.87 22.206,21.535 32.285,37.266 4.977,7.905 10.106,16.327 14.93,25.5 0.105,0.192 0.2,0.399 0.305,0.593 8.054,-4.971 16.369,-9.676 24.961,-14.11 6.713,-3.383 13.615,-6.553 20.795,-9.3 7.221,-2.644 14.705,-4.875 22.56,-6.312 7.837,-1.475 16.129,-1.972 24.672,-0.639 2.13,0.319 4.288,0.873 6.409,1.435 2.105,0.813 4.265,1.353 6.298,2.468 l 3.075,1.542 c 1.071,0.67 2.148,1.39 3.203,2.113 l 1.573,1.101 1.074,0.918 2.123,1.827 c 0.879,0.843 0.413,0.425 0.685,0.696 l 0.29,0.33 0.58,0.66 1.151,1.331 c 0.796,0.87 1.497,1.8 2.109,2.791 l 1.91,2.92 1.542,3.075 c 1.119,2.031 1.661,4.194 2.474,6.295 0.565,2.124 1.125,4.279 1.444,6.408 0.587,3.76 0.771,7.459 0.725,11.104 14.464,5.899 22.64,21.756 18.49,37.237 -4.357,16.262 -20.676,26.076 -36.952,22.594 -2.99,5.669 -6.002,11.283 -9.221,16.725 -1.172,1.975 -2.389,3.904 -3.59,5.846 8.454,4.543 16.801,9.453 25.051,14.757 6.288,4.121 12.484,8.512 18.455,13.359 5.902,4.926 11.571,10.297 16.747,16.377 5.197,6.053 9.772,12.985 12.89,21.052 0.787,2.004 1.387,4.147 1.96,6.267 0.348,2.228 0.96,4.369 1.011,6.686 l 0.203,3.435 c -0.045,1.262 -0.13,2.554 -0.228,3.83" />
        </g>
      </g>
    </g>
  </g>
</svg>
